<svg width="86" height="34" viewBox="0 0 86 34" fill="none" xmlns="http://www.w3.org/2000/svg">
<path d="M84.0647 12.4135C82.0244 12.4135 76.9663 12.7267 72.1432 13.0446C66.9172 13.389 57.8824 14.3115 50.0865 15.0991C39.8374 16.1346 35.9989 15.4218 29.2873 15.3387C23.502 15.2672 16.5449 15.4218 11.335 15.5736C6.83454 15.7048 3.56761 17.315 2.22481 17.2391C1.61952 17.2048 1.35174 16.3802 1.58187 15.901C2.1386 14.7416 3.40154 14.1596 3.7147 13.1324C4.92567 9.16005 14.4571 12.1003 17.2305 10.601C20.3753 8.90079 23.6338 7.51678 27.349 7.11584C30.1974 6.80844 34.2149 4.51801 36.8459 2.14082C37.3887 1.65036 38.1816 1.34842 38.5066 1.57855C38.8316 1.80868 38.6751 2.59158 38.203 3.30806C36.256 6.26278 32.9907 6.55831 30.0631 7.19175C26.4067 7.98288 20.6635 8.60811 14.8889 9.17038C11.6029 9.49035 8.47858 10.6674 6.25559 12.4064C5.72442 12.8219 5.30898 13.353 5.06699 13.9082C4.825 14.4633 4.825 15.0896 4.98158 15.0991C5.7555 15.146 6.40031 13.6804 7.66245 13.4431C10.1631 12.9731 12.7205 15.5641 15.4891 17.3102C19.0873 19.5795 22.6753 21.258 25.693 22.9258C28.9552 24.7287 33.5885 26.8 37.4722 28.3042C40.3788 29.4298 43.401 29.9601 46.1008 31.7039C46.3701 31.8778 45.1756 32.1807 44.3784 32.0265C40.9065 31.3549 37.7356 29.182 34.2576 27.6826C30.8734 26.2236 26.9931 25.2342 22.6326 23.0966C20.0192 21.8155 16.0799 20.6506 12.9008 19.1394C10.367 18.2687 8.46908 17.3197 7.28523 16.6104C6.7277 16.2142 6.25796 15.7444 4.825 13.837" stroke="black" stroke-width="3" stroke-linecap="round"/>
</svg>
